<?xml version="1.0" encoding="UTF-8"?><svg id="Layer_2" xmlns="http://www.w3.org/2000/svg" viewBox="0 0 127.66 36.98"><defs><style>.cls-1{fill:#7d499e;font-family:MyriadPro-Regular, 'Myriad Pro';font-size:9.61px;}.cls-2{letter-spacing:-.04em;}.cls-3{fill:#510c76;stroke-width:0px;}.cls-4{letter-spacing:-.06em;}</style></defs><g id="Laag_1"><path class="cls-3" d="M15.49,23.55v-4.27c-.01-.17-.1-.29-.19-.3-.06,0-.11.05-.15.09h0s-.03.04-.05.08c-.05.09-.07.17-.08.22,0,.03-.02.07-.03.12v.02h0c-.04.22-.06.44-.12.66-.43,1.71-1.39,3-3.33,3.13-1.28.09-2.57.06-3.86.08h0q-.78,0-.78-.77V2.31c0-.39.07-.73.23-1.04.04-.07.08-.13.12-.19.02-.02.03-.04.05-.06.03-.03.06-.06.09-.1.14-.17.27-.26.27-.26.02-.02.04-.04.07-.06h0s.06-.05.08-.08c.07-.06.11-.13.1-.21,0-.04-.03-.08-.06-.12-.02-.02-.04-.03-.06-.05h0c-.05-.02-.09-.04-.12-.05,0,0-.04,0-.07-.02-.03,0-.05,0-.08,0H1.51c-.22,0-.29,0-.3,0h-.02c-.21,0-.38.11-.39.24,0,.07.03.15.1.21.02.03.05.05.08.08h0s.05.05.07.06c0,0,.31.25.5.61h0c.16.31.23.65.23,1.03v19.52c-.02.24-.06.46-.15.67-.16.39-.48.73-.48.73-.05.06-.1.11-.15.16-.17.17-.27.24-.25.33.04.15.44.17.61.17h13.57c.17,0,.37.04.48-.07.09-.09.09-.23.09-.27h0Z"/><path class="cls-3" d="M97.24,23.54c-.04-.07-.12-.08-.22-.1-.08-.02-.2-.04-.34-.09-.09-.03-.21-.08-.34-.14-.45-.22-.74-.48-.81-.55-.13-.13-.25-.27-.36-.42-.45-.62-.89-1.28-1.22-1.97-.87-1.87-1.66-3.78-2.53-5.65-.68-1.48-1.57-2.81-3.16-3.65.34-.1.59-.18.84-.26,1.34-.39,2.53-1.01,3.36-2.19,1.54-2.2,1.3-6.19-2.71-7.65-1.76-.64-3.59-.76-5.42-.79-2.07-.04-4.14-.02-6.2-.02h-2.04s-.06,0-.09.02h-.03s-.08.03-.11.05c-.02,0-.04.02-.05.04h0s-.06.1-.05.16h0v.05h0s.02.05.03.07c.01,0,.03.03.04.04.02.03.05.05.08.08h0c.19.12.34.26.46.42h0s.04.05.05.07h0s.07.1.09.15h0s.05.1.08.15h0s.02.05.03.08h0s.02.05.03.08h0s.02.07.02.09h0s.03.11.04.17h0s0,.06.01.09h0s0,.06.01.09v.2h0v19.54c0,.32-.06.61-.18.87-.15.33-.5.67-.51.68-.23.24-.38.33-.35.42.02.07.14.15.56.16h6.08c.38,0,.63-.1.65-.23v-.02h0v-.02h0v-.02h0v-.02h0s0-.01-.01-.02h-.01s0-.02-.02-.03h-.01s0-.01-.01-.02h0s-.01,0-.02-.01h0s-.06-.04-.08-.05c-.14-.09-.35-.24-.53-.49-.43-.58-.4-1.26-.4-1.52v-5.46c0-1.38,0-2.77.01-4.15,0-.16.12-.43.24-.47.9-.28,1.82.02,2.33.85.56.9,1.04,1.85,1.49,2.8.83,1.74,1.59,3.52,2.45,5.24.62,1.23,1.43,2.37,2.72,2.96,1.67.77,3.46.74,5.25.72h.57s.05,0,.07-.01c.02,0,.05-.01.06-.02h0s.06-.02.11-.04h0s.04-.03.05-.04.04-.05.05-.1c0-.06-.02-.11-.03-.12h-.02ZM87.24,9.31c-.51.91-1.35,1.42-2.42,1.45-.83.02-1.66,0-2.5.01-.32,0-.48-.1-.48-.46,0-2.42,0-4.84.01-7.25h0V.98c.02-.17.1-.26.23-.3.07-.02.15-.03.25-.03h2.5c.1,0,.2,0,.3.02.07,0,.14,0,.21.02,1.07.1,1.75.87,2.18,1.8,1.05,2.3.97,4.6-.27,6.81h-.01Z"/><path class="cls-3" d="M127.52,23.36s-.03-.03-.05-.05c-.1-.06-.18-.13-.26-.2-.11-.11-.27-.28-.38-.5h0c-.07-.15-.13-.29-.16-.45-.04-.17-.06-.35-.06-.53v-8.56h0v-2.18h0V2.39c0-.39.07-.73.23-1.04.04-.07.08-.13.12-.19.02-.02.03-.04.05-.06.03-.03.06-.06.09-.1.14-.17.27-.26.27-.26.02-.02.04-.04.07-.06h0s.06-.05.08-.08c.07-.06.11-.13.1-.21,0-.02,0-.03,0-.04,0-.02-.02-.04-.04-.06h0s-.04-.04-.06-.06h0s-.06-.03-.09-.04c0,0-.02,0-.03,0,0,0-.04,0-.07-.02-.03,0-.05,0-.08,0h-6.3c-.21,0-.38.11-.39.24,0,.07.03.15.1.21.01.02.03.03.05.05.62.39.87,1,.87,1.68.02,6.42.02,12.84,0,19.26,0,.4-.08.79-.28,1.12-.1.16-.22.3-.37.43-.06.05-.09.08-.09.08-.02.02-.04.04-.07.06h0s-.06.05-.08.08c-.07.06-.11.13-.1.21,0,.02,0,.03.01.04,0,.02.02.04.04.06h0s.04.04.06.06h0s.06.03.09.04c.01,0,.02,0,.03.01,0,0,.04.01.07.02.03,0,.05.01.08.01h6.31c.21,0,.38-.11.39-.24,0-.07-.03-.15-.1-.21h-.04Z"/><path class="cls-3" d="M34.81.33s0-.05-.05-.1c-.11-.13-.29-.15-.36-.16h-1.92c-.28,0-.46.15-.46.28,0,.02,0,.09.09.18.02.03.05.05.08.08h0s.05.05.07.06c0,0,.31.25.5.61h0c.16.31.23.65.23,1.03v13.55c0,.54-.03,1.08-.09,1.61-.33,3-2.09,5.3-4.92,5.83-.33.06-.67.1-1.03.11h-.46c-1.59-.1-2.8-.84-3.59-2.25-.55-.98-.84-2.06-.92-3.15V2.33c0-.39.07-.73.23-1.03.04-.07.08-.13.12-.19.02-.02.03-.04.05-.06.08-.1.15-.16.4-.39.1-.1.16-.15.2-.2.02-.03.04-.08.03-.12-.02-.11-.17-.16-.31-.2-.11-.04-.28-.08-.5-.07h-5.4c-.06,0-.86.03-.91.28,0,.04,0,.11.1.21.02.03.05.05.08.08h0s.05.05.07.06c0,0,.09.07.21.2h.01c.06.08.13.16.19.26.03.05.06.1.09.15h0c.16.31.23.65.23,1.03v3.29h0v3.84c0,1.3-.02,2.59,0,3.89,0,.28,0,.56.01.84,0,.99.02,1.98.1,2.96.02.23.03.46.06.69.04.31.1.61.17.9.48,1.87,1.72,3.23,3.57,4.07.21.1.43.19.65.27.19.07.38.14.57.2.03,0,.06.02.08.03h0c.1.03.21.06.31.09,1.25.35,2.53.5,3.83.51h.13c.47,0,.94-.01,1.41-.04h.08c1.82-.14,3.28-1.01,4.38-2.48.31-.41.56-.83.76-1.27.59-1.27.79-2.65.8-4.09.02-4.51,0-9.01,0-13.52,0-.78.14-1.44.83-1.88.13-.08.2-.19.18-.29l.02-.02Z"/><path class="cls-3" d="M118.37,9.06c-.54-2.86-2-5.17-4.4-6.84-2.21-1.53-4.71-2.11-7.35-2.14-.68,0-1.35,0-2.03,0h-6.28c-.1,0-.17,0-.24.02-.17.02-.24.06-.26.12-.02.04-.02.09-.01.13,0,.02.01.05.02.06.03.09.09.14.17.19.08.06.18.11.29.21.02.02.04.03.05.05h0s.03.02.04.04c.01,0,.02.02.03.03h0s.03.03.04.04h0c.32.37.45.84.45,1.37v18.44h0v.26c0,.51,0,.77-.02.9-.05.43-.23.75-.29.85-.04.07-.09.14-.13.2-.16.21-.33.34-.45.44-.1.08-.17.15-.17.21v.03s.02.03.03.05c.04.04.12.07.24.09.18.03.45.05.79.06h4.34c2-.08,4.38.2,6.71-.38,3.47-.86,6.11-2.77,7.62-6.07,1.23-2.7,1.35-5.53.81-8.4v.05ZM113.24,15.89c-.31,1.79-.82,3.5-1.88,5-.58.83-1.27,1.46-2.07,1.88h0c-.46.26-.85.39-1.11.46-.46.12-.95.15-1.94.2-.31.02-.57.02-.74.03h-.98c-.05,0-.14,0-.24-.06-.04-.03-.08-.06-.1-.08-.12-.1-.16-.29-.16-.55.02-3.59,0-7.17,0-10.76s.01-7.14-.01-10.7c0-.26.03-.44.12-.56h0s.07-.08.12-.1h0c.1-.05.19-.06.24-.06h.99c.17,0,.43,0,.74.03.93.05,1.4.07,1.94.2h.01c.39.09.75.22,1.08.39h0c1.1.56,1.92,1.52,2.57,2.66,1.01,1.75,1.41,3.67,1.6,5.64.21,2.14.18,4.28-.19,6.4v-.02Z"/><path class="cls-3" d="M74.79,23.31c-.12-.36-.63-.32-.99-.78-.19-.24-.34-.51-.45-.83-.99-2.9-1.98-5.81-2.97-8.71-1.4-4.12-2.8-8.25-4.19-12.37-.03-.08-.08-.32-.28-.43-.01,0-.03,0-.04-.02,0,0-.02,0-.03-.02-.14-.08-.31-.11-.45-.13-.09,0-.18-.02-.27-.02h-3.98c-.24,0-.67.04-.83.08-.02,0-.03,0-.04.02-.14.05-.2.15-.22.22v.06s0,.12.05.2c.04.06.09.1.17.17l.1.09c.06.05.13.12.21.21.07.07.12.13.14.15.13.17.22.33.26.45,0,0,0,.03,0,.04.07.4,0,.73-.05.87-.05.14-.1.29-.15.43h0c-.65,1.91-1.3,3.83-1.94,5.74-.44,1.32-.88,2.63-1.32,3.95,0,.02,0,.03-.02.05-.16.43-.69,1.84-1.63,3.64-.64,1.2-1.18,2.07-1.41,2.44-.75,1.18-1.14,1.75-1.45,2.13-1.15,1.4-3.31,2.28-5.32,2.35-.67,0-1.32-.1-1.9-.3-2.06-.71-3.22-2.3-4.02-4.19-.94-2.23-1.2-4.6-1.2-7.28.02-2.12.27-4.49,1.01-6.78.67-2.07,1.8-3.68,4.13-4.09.22-.04.44-.06.66-.07,2.09-.1,4.42.98,5.07,3.31.17.62.15,1.28.26,1.92.17,1,.79,1.6,1.63,1.64.17,0,.35,0,.53-.04.9-.19,1.43-1.23,1.2-2.3-.31-1.41-1.21-2.4-2.34-3.19-1.91-1.33-3.99-1.91-6.19-1.83-.65.02-1.3.1-1.96.24-3.63.74-6.25,2.84-7.83,6.19-1.38,2.94-1.44,6.02-.71,9.12.64,2.72,2.1,4.92,4.5,6.43,2.09,1.32,4.38,1.86,6.78,1.83.36,0,.72-.02,1.09-.05,1.44-.11,2.68-.51,3.73-1.18,1.4-.89,2.15-2.06,2.65-2.84.2-.31.52-.86.86-1.51,0,0,1.01-1.97,1.77-2.58.1-.08.21-.13.21-.13.09-.04.21-.08.37-.1,1.16-.02,2.32,0,3.48,0h3.87c.36,0,.55.12.66.47.38,1.17.8,2.33,1.19,3.49.3.88.61,1.75.87,2.64.03.11.11.34.1.59h0c0,.06-.02.13-.03.19-.02.06-.03.11-.05.15-.01.02-.02.04-.03.07h0s-.01.02-.02.03c-.04.07-.09.12-.1.13-.1.11-.33.19-.38.32-.03.07,0,.16.05.21.07.08.18.08.62.08h6.5c.09-.17.16-.38.09-.58h-.03ZM65.25,15.03h-7c-.58,0-.66-.11-.49-.62,1.27-3.71,2.54-7.42,3.81-11.12,0-.04.03-.08.06-.13.15.41.28.75.4,1.09,1.14,3.39,2.29,6.78,3.43,10.17.16.47.15.59-.21.61Z"/><text class="cls-1" transform="translate(0 34.57) scale(1.21 1)"><tspan x="0" y="0">EEN JUWEEL</tspan><tspan class="cls-2" x="49.72" y="0"> </tspan><tspan class="cls-4" x="51.41" y="0">V</tspan><tspan x="56.23" y="0">AN EEN BRIL</tspan></text></g></svg>